<svg xmlns="http://www.w3.org/2000/svg" xmlns:xlink="http://www.w3.org/1999/xlink" width="794" zoomAndPan="magnify" viewBox="0 0 595.5 842.249979" height="1123" preserveAspectRatio="xMidYMid meet" version="1.0"><defs><clipPath id="d9fd3a615d"><path d="M 0.015625 98.082031 L 594.75 98.082031 L 594.75 693 L 0.015625 693 Z M 0.015625 98.082031 " clip-rule="nonzero"/></clipPath></defs><g clip-path="url(#d9fd3a615d)"><path fill="#120707" d="M 594.75 395.449219 C 594.75 231.566406 461.265625 98.082031 297.382812 98.082031 C 133.5 98.082031 0.015625 231.566406 0.015625 395.449219 C 0.015625 559.332031 133.5 692.816406 297.382812 692.816406 C 461.265625 692.816406 594.75 559.332031 594.75 395.449219 Z M 26.449219 395.449219 C 26.449219 246.105469 148.039062 124.515625 297.382812 124.515625 C 446.726562 124.515625 568.320312 246.105469 568.320312 395.449219 C 568.320312 544.792969 446.726562 666.386719 297.382812 666.386719 C 148.039062 666.386719 26.449219 544.792969 26.449219 395.449219 Z M 290.773438 565.28125 C 290.113281 565.28125 290.113281 564.621094 289.453125 564.621094 C 288.792969 563.957031 288.132812 563.296875 287.472656 562.636719 L 168.523438 443.691406 C 166.542969 441.707031 165.21875 438.402344 165.21875 435.097656 C 165.21875 431.792969 166.542969 428.492188 169.183594 425.847656 C 174.472656 420.5625 182.402344 420.5625 187.6875 425.847656 L 284.167969 522.328125 L 284.167969 236.855469 C 284.167969 229.585938 290.113281 223.636719 297.382812 223.636719 C 304.652344 223.636719 310.597656 229.585938 310.597656 236.855469 L 310.597656 522.328125 L 407.078125 425.847656 C 412.367188 420.5625 420.296875 420.5625 425.582031 425.847656 C 430.867188 431.132812 430.867188 439.0625 425.582031 444.351562 L 306.632812 563.296875 C 305.972656 563.957031 305.3125 564.621094 304.652344 565.28125 C 304.652344 565.28125 303.992188 565.941406 303.332031 565.941406 C 302.667969 565.941406 302.667969 566.601562 302.007812 566.601562 C 301.347656 566.601562 301.347656 566.601562 300.6875 567.261719 C 300.027344 567.261719 300.027344 567.261719 299.367188 567.921875 C 297.382812 568.585938 296.0625 568.585938 294.078125 567.921875 C 293.417969 567.921875 293.417969 567.921875 292.757812 567.261719 C 292.097656 567.261719 292.097656 567.261719 291.4375 566.601562 C 292.097656 565.941406 291.4375 565.941406 290.773438 565.28125 Z M 290.773438 565.28125 " fill-opacity="1" fill-rule="nonzero"/></g></svg>